<svg viewBox="0 0 80 81" xmlns="http://www.w3.org/2000/svg"><g fill-rule="nonzero" fill="#fff"><path d="M78.438 46.875c-.863 0-1.563.7-1.563 1.563V77.5H3.125V3.75h29.063a1.563 1.563 0 000-3.125H3.125A3.125 3.125 0 000 3.75V77.5c0 1.726 1.4 3.125 3.125 3.125h73.75c1.726 0 3.125-1.4 3.125-3.125V48.437c0-.862-.7-1.562-1.563-1.562z"/><path d="M79.97 1.884c-.006-.028-.017-.054-.024-.08-.019-.072-.036-.143-.064-.21-.014-.035-.035-.067-.052-.1-.029-.058-.055-.116-.091-.17A1.56 1.56 0 0079.3.885c-.056-.038-.117-.065-.177-.095-.031-.015-.06-.035-.091-.048-.07-.029-.141-.046-.213-.064-.027-.007-.052-.019-.08-.024a1.57 1.57 0 00-.302-.03L50.624.629a1.563 1.563 0 000 3.125l24.04-.004-55.77 55.77a1.563 1.563 0 002.21 2.21l55.77-55.77L76.87 30a1.563 1.563 0 003.125 0L80 2.188c0-.101-.01-.203-.03-.303z"/></g></svg>