<svg xmlns="http://www.w3.org/2000/svg" viewBox="0 0 24.84 20"><defs><style>.cls-1{fill:#73b0e3}</style></defs><g id="Layer_2" data-name="Layer 2"><g id="Layer_1-2" data-name="Layer 1"><g id="open-quote-40"><path class="cls-1" d="M15.84 7.06a30.31 30.31 0 00-1.27 9.47v2.79a.67.67 0 00.67.67h8.93a.67.67 0 00.67-.67v-7.25a.67.67 0 00-.67-.67h-3.14a.67.67 0 01-.66-.6c-.39-3.71.52-5.9 2.27-8.84a.67.67 0 00-.23-.96L20.92.1a.67.67 0 00-.8.07 17 17 0 00-4.28 6.89zM1.29 7.06A30.31 30.31 0 000 16.53v2.79a.67.67 0 00.68.68h8.93a.67.67 0 00.67-.67v-7.26a.67.67 0 00-.67-.67H6.47a.67.67 0 01-.66-.6c-.39-3.71.52-5.9 2.27-8.84A.67.67 0 007.85 1L6.36.1a.67.67 0 00-.8.07 17 17 0 00-4.27 6.89z"/></g></g></g></svg>