<svg viewBox="0 0 80 74" xmlns="http://www.w3.org/2000/svg" xmlns:xlink="http://www.w3.org/1999/xlink"><defs><path d="M63.97 0l.246.01c2.467.158 4.66 1.862 5.331 4.143.374 1.274 3.094 11.91-6.833 21.647h10.042c3.718 0 6.745 3.048 6.745 6.794a6.805 6.805 0 01-2.472 5.25 6.794 6.794 0 012.407 5.194 6.803 6.803 0 01-2.87 5.555 6.79 6.79 0 012.079 4.893 6.793 6.793 0 01-5.1 6.582 6.78 6.78 0 011.319 4.019c0 3.745-3.025 6.793-6.746 6.793H33.239c-.136 0-.272-.019-.404-.054l-8.716-2.355-4.371.045v4.57H0V29.793h19.748v3.734h3.313l17.278-14.384c.1-.083.21-.154.328-.21.143-.069 14.391-6.932 18.067-15.327 1.054-2.403 3.1-3.736 5.482-3.595zM16.273 32.934H3.118v37.013h13.154V32.933zM64.018 3.145c-1.053-.073-1.906.528-2.431 1.728-3.952 9.024-17.589 15.924-19.408 16.812L24.616 36.307c-.28.232-.632.36-.994.36h-3.874s-1.616.067-2.476.098v28.61c1.74-.008 6.492-.043 6.987-.046h.042c.155.003.284.016.419.052l8.725 2.358h34.673c2.001 0 3.628-1.639 3.628-3.652 0-2.014-1.627-3.653-3.628-3.653h-4.05a1.564 1.564 0 01-1.559-1.57c0-.027.007-.052.007-.077 0-.026-.007-.05-.007-.077 0-.867.698-1.57 1.559-1.57h7.833c2 0 3.627-1.64 3.627-3.654 0-2.013-1.627-3.652-3.627-3.652h-7.833a1.565 1.565 0 01-1.559-1.57c0-.868.698-1.57 1.559-1.57h8.626c1.999 0 3.625-1.64 3.625-3.656 0-2.01-1.623-3.647-3.618-3.65h-7.265l-.004-.001h-1.364a1.564 1.564 0 01-1.559-1.57c0-.867.698-1.571 1.559-1.571h2.354l3.746.001 2.59-.001c2-.002 3.624-1.64 3.624-3.652 0-2.015-1.626-3.654-3.626-3.654H55.802a1.564 1.564 0 01-1.558-1.57c0-.866.697-1.57 1.558-1.57h2.165c11.623-9.044 8.935-19.583 8.589-20.755-.291-.992-1.406-1.827-2.538-1.9zM7.5 62.575c1.105 0 2 .896 2 2.002a2.001 2.001 0 01-2 2.002 2.001 2.001 0 010-4.005z" id="a"/></defs><g fill="#fff" fill-rule="evenodd"><mask id="b"><use xlink:href="#a"/></mask><use xlink:href="#a"/><g mask="url(#b)"><path d="M-1-3.004h81v80.095H-1z"/></g></g></svg>