<svg id="Layer_1" xmlns="http://www.w3.org/2000/svg" xmlns:xlink="http://www.w3.org/1999/xlink" viewBox="0 0 36 36"><style>.st0{fill:#595959}</style><image width="35" height="35" xlink:href="2016-07-18.png" transform="translate(-85.583 -7.26)" overflow="visible"/><path class="st0" d="M21.6 18L34.8 4.8c1-1 1-2.6 0-3.6s-2.6-1-3.6 0L18 14.4 4.8 1.2c-1-1-2.6-1-3.6 0s-1 2.6 0 3.6L14.4 18 1.2 31.2c-1 1-1 2.6 0 3.6.5.5 1.1.7 1.8.7s1.3-.2 1.8-.7L18 21.6l13.2 13.2c.5.5 1.1.7 1.8.7s1.3-.2 1.8-.7c1-1 1-2.6 0-3.6L21.6 18z"/></svg>